<?xml version="1.0" encoding="UTF-8" standalone="no"?>
<!DOCTYPE svg PUBLIC "-//W3C//DTD SVG 1.1//EN" "http://www.w3.org/Graphics/SVG/1.1/DTD/svg11.dtd">
<svg width="100%" height="100%" viewBox="0 0 64 64" version="1.1" xmlns="http://www.w3.org/2000/svg" xmlns:xlink="http://www.w3.org/1999/xlink" xml:space="preserve" xmlns:serif="http://www.serif.com/" style="fill-rule:evenodd;clip-rule:evenodd;stroke-linejoin:round;stroke-miterlimit:2;">
    <g transform="matrix(0.124075,0,0,0.110542,0.22709,2.82791)">
        <path d="M505.261,448.199L449.888,448.199C446.773,448.199 444.044,446.038 443.332,443.005L431.897,394.323C431.185,391.29 428.456,389.129 425.341,389.129L356.327,389.129C353.212,389.129 350.483,391.29 349.771,394.323L338.336,443.005C337.624,446.038 334.895,448.199 331.78,448.199L278.004,448.199C273.485,448.199 270.249,443.836 271.559,439.512L350.732,178.243C351.59,175.412 354.218,173.462 357.177,173.462L426.467,173.462C429.437,173.462 432.057,175.408 432.914,178.252L511.709,439.521C513.012,443.843 509.776,448.199 505.261,448.199ZM417.218,333.269L397.235,248.898C395.596,241.977 385.742,241.993 384.124,248.918L364.419,333.289C363.432,337.513 366.639,341.555 370.977,341.555L410.665,341.555C415.011,341.555 418.219,337.499 417.218,333.269Z" style="fill:rgb(89,123,145);fill-rule:nonzero;"/>
    </g>
    <g transform="matrix(0.124075,0,0,0.110542,0.22709,2.82791)">
        <path d="M326.694,448.199L249.219,448.199C244.86,448.199 241.043,445.174 240.046,440.931L224.046,372.817C223.049,368.574 219.232,365.549 214.873,365.549L118.312,365.549C113.953,365.549 110.136,368.574 109.139,372.817L93.139,440.931C92.142,445.174 88.325,448.199 83.966,448.199L8.728,448.199C2.405,448.199 -2.123,442.095 -0.289,436.044L110.485,70.491C111.685,66.529 115.362,63.801 119.502,63.801L216.449,63.801C220.593,63.801 224.274,66.535 225.47,70.503L335.715,436.057C337.539,442.104 333.012,448.199 326.694,448.199ZM203.508,287.395L175.549,169.348C173.256,159.665 159.468,159.687 157.205,169.377L129.635,287.424C128.255,293.334 132.741,298.989 138.81,298.989L194.339,298.989C200.421,298.988 204.91,293.313 203.508,287.395Z" style="fill:rgb(43,59,71);fill-rule:nonzero;"/>
    </g>
</svg>
