<?xml version="1.0" encoding="UTF-8" standalone="no"?>
<!DOCTYPE svg PUBLIC "-//W3C//DTD SVG 1.1//EN" "http://www.w3.org/Graphics/SVG/1.1/DTD/svg11.dtd">
<svg width="100%" height="100%" viewBox="0 0 24 16" version="1.1" xmlns="http://www.w3.org/2000/svg" xmlns:xlink="http://www.w3.org/1999/xlink" xml:space="preserve" xmlns:serif="http://www.serif.com/" style="fill-rule:evenodd;clip-rule:evenodd;stroke-linejoin:round;stroke-miterlimit:2;">
    <g id="china" transform="matrix(0.8,0,0,0.8,-7.10543e-15,0)">
        <g id="china1" serif:id="china">
            <g id="china2" serif:id="china">
                <rect id="rect11326" x="0" y="0" width="29.787" height="20" style="fill:rgb(237,85,101);"/>
                <path id="use11328" d="M5,2L6.763,7.427L2.147,4.073L7.853,4.073L3.237,7.427L5,2Z" style="fill:rgb(246,187,66);fill-rule:nonzero;"/>
                <path id="use11330" d="M10.391,1.08L10.224,2.975L9.246,1.343L10.996,2.088L9.143,2.514L10.391,1.08Z" style="fill:rgb(246,187,66);fill-rule:nonzero;"/>
                <path id="use11332" d="M12.718,3.304L11.829,4.985L11.56,3.102L12.884,4.467L11.01,4.141L12.718,3.304Z" style="fill:rgb(246,187,66);fill-rule:nonzero;"/>
                <path id="use11334" d="M12.939,6.657L11.442,7.83L11.964,6.001L12.616,7.787L11.038,6.725L12.939,6.657Z" style="fill:rgb(246,187,66);fill-rule:nonzero;"/>
                <path id="use11336" d="M10.353,8.064L10.265,9.964L9.219,8.375L10.999,9.046L9.165,9.55L10.353,8.064Z" style="fill:rgb(246,187,66);fill-rule:nonzero;"/>
            </g>
        </g>
    </g>
</svg>
