<?xml version="1.0" encoding="UTF-8" standalone="no"?>
<!DOCTYPE svg PUBLIC "-//W3C//DTD SVG 1.1//EN" "http://www.w3.org/Graphics/SVG/1.1/DTD/svg11.dtd">
<svg width="100%" height="100%" viewBox="0 0 17 16" version="1.1" xmlns="http://www.w3.org/2000/svg" xmlns:xlink="http://www.w3.org/1999/xlink" xml:space="preserve" xmlns:serif="http://www.serif.com/" style="fill-rule:evenodd;clip-rule:evenodd;stroke-linejoin:round;stroke-miterlimit:2;">
    <g transform="matrix(0.0383237,0,0,0.0383237,-0.00563371,-0.0302749)">
        <path d="M193.713,48.865L193.713,0.79C173.378,2.25 153.876,6.649 135.57,13.498L153.93,57.824C166.547,53.256 179.859,50.152 193.713,48.865Z" style="fill:rgb(40,153,213);"/>
    </g>
    <g transform="matrix(0.0383237,0,0,0.0383237,-0.00563371,-0.0302749)">
        <path d="M89.852,100.779L55.867,66.796C40.55,83.212 27.845,102.083 18.415,122.768L62.736,141.124C69.695,126.282 78.915,112.744 89.852,100.779Z" style="fill:rgb(40,153,213);"/>
    </g>
    <g transform="matrix(0.0383237,0,0,0.0383237,-0.00563371,-0.0302749)">
        <path d="M140.479,63.38L122.122,19.053C101.432,28.492 82.572,41.197 66.156,56.509L100.141,90.494C112.098,79.566 125.638,70.343 140.479,63.38Z" style="fill:rgb(40,153,213);"/>
    </g>
    <g transform="matrix(0.0383237,0,0,0.0383237,-0.00563371,-0.0302749)">
        <path d="M0.147,194.356L48.214,194.356C49.505,180.504 52.613,167.189 57.179,154.578L12.85,136.217C6.002,154.525 1.609,174.026 0.147,194.356Z" style="fill:rgb(40,153,213);"/>
    </g>
    <g transform="matrix(0.0383237,0,0,0.0383237,-0.00563371,-0.0302749)">
        <path d="M327.941,318.302L361.923,352.284C377.235,335.873 389.942,317.005 399.377,296.322L355.056,277.963C348.095,292.809 338.867,306.339 327.941,318.302Z" style="fill:rgb(40,153,213);"/>
    </g>
    <g transform="matrix(0.0383237,0,0,0.0383237,-0.00563371,-0.0302749)">
        <path d="M224.077,370.216L224.077,418.286C244.411,416.831 263.917,412.429 282.22,405.584L263.864,361.253C251.252,365.822 237.931,368.923 224.077,370.216Z" style="fill:rgb(40,153,213);"/>
    </g>
    <g transform="matrix(0.0383237,0,0,0.0383237,-0.00563371,-0.0302749)">
        <path d="M277.312,355.698L295.667,400.021C316.362,390.587 335.22,377.882 351.636,362.573L317.651,328.584C305.69,339.522 292.164,348.741 277.312,355.698Z" style="fill:rgb(40,153,213);"/>
    </g>
    <g transform="matrix(0.0383237,0,0,0.0383237,-0.00563371,-0.0302749)">
        <path d="M417.644,224.722L369.576,224.722C368.286,238.577 365.181,251.901 360.606,264.511L404.933,282.873C411.787,264.568 416.183,245.056 417.644,224.722Z" style="fill:rgb(40,153,213);"/>
    </g>
    <g transform="matrix(0.0383237,0,0,0.0383237,-0.00563371,-0.0302749)">
        <path d="M306.373,101.788C295.906,92.305 284.115,84.277 271.204,78.141L255.233,116.711C263.091,120.634 270.366,125.528 276.931,131.233L306.373,101.788Z" style="fill:rgb(226,224,223);"/>
    </g>
    <g transform="matrix(0.0383237,0,0,0.0383237,-0.00563371,-0.0302749)">
        <path d="M311.545,194.356L353.532,194.356C352.318,182.661 349.624,171.421 345.811,160.721L307.287,176.671C309.19,182.37 310.652,188.269 311.545,194.356Z" style="fill:rgb(226,224,223);"/>
    </g>
    <g transform="matrix(0.0383237,0,0,0.0383237,-0.00563371,-0.0302749)">
        <path d="M287.216,141.524C292.924,148.084 297.811,155.362 301.737,163.224L340.298,147.247C334.167,134.344 326.144,122.545 316.66,112.075L287.216,141.524Z" style="fill:rgb(226,224,223);"/>
    </g>
    <g transform="matrix(0.0383237,0,0,0.0383237,-0.00563371,-0.0302749)">
        <path d="M224.085,64.899L224.085,106.894C230.177,107.79 236.081,109.254 241.783,111.157L257.742,72.629C247.034,68.809 235.781,66.114 224.085,64.899Z" style="fill:rgb(226,224,223);"/>
    </g>
    <g transform="matrix(0.0383237,0,0,0.0383237,-0.00563371,-0.0302749)">
        <path d="M106.245,224.718L64.258,224.718C65.472,236.425 68.162,247.671 71.985,258.383L110.513,242.425C108.605,236.726 107.142,230.821 106.245,224.718Z" style="fill:rgb(226,224,223);"/>
    </g>
    <g transform="matrix(0.0383237,0,0,0.0383237,-0.00563371,-0.0302749)">
        <path d="M111.427,317.307C121.905,326.783 133.7,334.81 146.598,340.939L162.576,302.374C154.722,298.451 147.444,293.563 140.88,287.864L111.427,317.307Z" style="fill:rgb(226,224,223);"/>
    </g>
    <g transform="matrix(0.0383237,0,0,0.0383237,-0.00563371,-0.0302749)">
        <path d="M193.719,354.183L193.719,312.185C187.628,311.292 181.728,309.83 176.032,307.926L160.064,346.453C170.77,350.271 182.019,352.969 193.719,354.183Z" style="fill:rgb(226,224,223);"/>
    </g>
    <g transform="matrix(0.0383237,0,0,0.0383237,-0.00563371,-0.0302749)">
        <path d="M130.587,277.575C124.884,271.013 119.997,263.731 116.062,255.876L77.506,271.85C83.637,284.754 91.667,296.547 101.14,307.018L130.587,277.575Z" style="fill:rgb(226,224,223);"/>
    </g>
    <g transform="matrix(0.0383237,0,0,0.0383237,-0.00563371,-0.0302749)">
        <path d="M193.713,106.894L193.713,64.899C182.017,66.114 170.77,68.809 160.061,72.629L176.015,111.155C181.715,109.25 187.621,107.79 193.713,106.894Z" style="fill:rgb(226,224,223);"/>
    </g>
    <g transform="matrix(0.0383237,0,0,0.0383237,-0.00563371,-0.0302749)">
        <path d="M64.258,194.356L106.245,194.356C107.142,188.265 108.605,182.367 110.506,176.664L71.985,160.714C68.162,171.417 65.472,182.657 64.258,194.356Z" style="fill:rgb(226,224,223);"/>
    </g>
    <g transform="matrix(0.0383237,0,0,0.0383237,-0.00563371,-0.0302749)">
        <path d="M140.871,131.225C147.431,125.523 154.714,120.629 162.567,116.703L146.596,78.141C133.689,84.271 121.898,92.299 111.425,101.786L140.871,131.225Z" style="fill:rgb(226,224,223);"/>
    </g>
    <g transform="matrix(0.0383237,0,0,0.0383237,-0.00563371,-0.0302749)">
        <path d="M101.138,112.067C91.661,122.541 83.626,134.34 77.499,147.243L116.06,163.216C119.983,155.354 124.877,148.076 130.584,141.513L101.138,112.067Z" style="fill:rgb(226,224,223);stroke:white;stroke-width:26.09px;"/>
    </g>
    <g transform="matrix(0.0383237,0,0,0.0383237,-0.00563371,-0.0302749)">
        <path d="M224.077,312.185L224.077,354.183C235.776,352.969 247.028,350.271 257.73,346.453L241.778,307.922C236.074,309.83 230.169,311.289 224.077,312.185Z" style="fill:rgb(226,224,223);"/>
    </g>
    <g transform="matrix(0.0383237,0,0,0.0383237,-0.00563371,-0.0302749)">
        <path d="M276.921,287.86C270.354,293.559 263.078,298.448 255.223,302.371L271.199,340.939C284.103,334.81 295.891,326.783 306.363,317.299L276.921,287.86Z" style="fill:rgb(226,224,223);"/>
    </g>
    <g transform="matrix(0.0383237,0,0,0.0383237,-0.00563371,-0.0302749)">
        <path d="M316.652,307.01C326.126,296.547 334.162,284.75 340.293,271.85L301.729,255.876C297.803,263.731 292.912,271.009 287.209,277.571L316.652,307.01Z" style="fill:rgb(226,224,223);stroke:rgb(226,224,223);stroke-width:26.09px;"/>
    </g>
    <g transform="matrix(0.0383237,0,0,0.0383237,-0.00563371,-0.0302749)">
        <path d="M353.532,224.722L311.545,224.722C310.652,230.821 309.184,236.726 307.281,242.425L345.801,258.383C349.624,247.671 352.318,236.425 353.532,224.722Z" style="fill:rgb(226,224,223);"/>
    </g>
    <g transform="matrix(0.0383237,0,0,0.0383237,-0.00563371,-0.0302749)">
        <path d="M297.006,194.356C296.294,190.187 295.252,186.135 293.98,182.182L264.591,194.356L297.006,194.356Z" style="fill:rgb(40,153,213);"/>
    </g>
    <g transform="matrix(0.0383237,0,0,0.0383237,-0.00563371,-0.0302749)">
        <path d="M239.908,188.831L288.43,168.73C285.287,162.606 281.461,156.899 277.048,151.694L239.908,188.831Z" style="fill:rgb(40,153,213);"/>
    </g>
    <g transform="matrix(0.0383237,0,0,0.0383237,-0.00563371,-0.0302749)">
        <path d="M224.085,121.428L224.085,153.888L236.267,124.462C232.32,123.19 228.256,122.144 224.085,121.428Z" style="fill:rgb(40,153,213);"/>
    </g>
    <g transform="matrix(0.0383237,0,0,0.0383237,-0.00563371,-0.0302749)">
        <path d="M249.719,130.012L229.621,178.541L266.758,141.403C261.559,136.984 255.849,133.159 249.719,130.012Z" style="fill:rgb(40,153,213);"/>
    </g>
    <g transform="matrix(0.0383237,0,0,0.0383237,-0.00563371,-0.0302749)">
        <path d="M297.012,224.722L264.543,224.722L293.98,236.915C295.252,232.957 296.294,228.898 297.012,224.722Z" style="fill:rgb(40,153,213);"/>
    </g>
    <g transform="matrix(0.0383237,0,0,0.0383237,-0.00563371,-0.0302749)">
        <path d="M288.428,250.363L239.908,230.266L277.035,267.399C281.454,262.198 285.281,256.491 288.428,250.363Z" style="fill:rgb(40,153,213);"/>
    </g>
    <g transform="matrix(0.0383237,0,0,0.0383237,-0.00563371,-0.0302749)">
        <path d="M229.615,240.552L249.715,289.074C255.841,285.927 261.544,282.101 266.746,277.684L229.615,240.552Z" style="fill:rgb(40,153,213);"/>
    </g>
    <g transform="matrix(0.0383237,0,0,0.0383237,-0.00563371,-0.0302749)">
        <path d="M224.077,297.656C228.252,296.936 232.31,295.892 236.265,294.622L224.077,265.198L224.077,297.656Z" style="fill:rgb(40,153,213);"/>
    </g>
    <g transform="matrix(0.0383237,0,0,0.0383237,-0.00563371,-0.0302749)">
        <path d="M129.358,168.723L177.893,188.831L140.752,151.687C136.338,156.884 132.505,162.598 129.358,168.723Z" style="fill:rgb(40,153,213);"/>
    </g>
    <g transform="matrix(0.0383237,0,0,0.0383237,-0.00563371,-0.0302749)">
        <path d="M193.713,121.428C189.536,122.144 185.482,123.184 181.529,124.458L193.713,153.877L193.713,121.428Z" style="fill:rgb(40,153,213);"/>
    </g>
    <g transform="matrix(0.0383237,0,0,0.0383237,-0.00563371,-0.0302749)">
        <path d="M188.181,178.541L168.081,130.004C161.955,133.155 156.237,136.978 151.04,141.396L188.181,178.541Z" style="fill:rgb(40,153,213);"/>
    </g>
    <g transform="matrix(0.0383237,0,0,0.0383237,-0.00563371,-0.0302749)">
        <path d="M120.786,194.356L153.214,194.356L123.811,182.182C122.541,186.131 121.499,190.187 120.786,194.356Z" style="fill:rgb(40,153,213);"/>
    </g>
    <g transform="matrix(0.0383237,0,0,0.0383237,-0.00563371,-0.0302749)">
        <path d="M168.086,289.078L188.181,240.556L151.049,277.688C156.252,282.105 161.957,285.934 168.086,289.078Z" style="fill:rgb(40,153,213);"/>
    </g>
    <g transform="matrix(0.0383237,0,0,0.0383237,-0.00563371,-0.0302749)">
        <path d="M120.778,224.718C121.499,228.898 122.541,232.957 123.811,236.915L153.259,224.718L120.778,224.718Z" style="fill:rgb(40,153,213);"/>
    </g>
    <g transform="matrix(0.0383237,0,0,0.0383237,-0.00563371,-0.0302749)">
        <path d="M193.719,297.656L193.719,265.216L181.534,294.625C185.492,295.896 189.542,296.936 193.719,297.656Z" style="fill:rgb(40,153,213);"/>
    </g>
    <g transform="matrix(0.0383237,0,0,0.0383237,-0.00563371,-0.0302749)">
        <path d="M177.893,230.266L129.364,250.373C132.509,256.491 136.344,262.205 140.756,267.402L177.893,230.266Z" style="fill:rgb(40,153,213);"/>
    </g>
</svg>
