<?xml version="1.0" encoding="UTF-8" standalone="no"?>
<!DOCTYPE svg PUBLIC "-//W3C//DTD SVG 1.1//EN" "http://www.w3.org/Graphics/SVG/1.1/DTD/svg11.dtd">
<svg width="100%" height="100%" viewBox="0 0 16 16" version="1.1" xmlns="http://www.w3.org/2000/svg" xmlns:xlink="http://www.w3.org/1999/xlink" xml:space="preserve" xmlns:serif="http://www.serif.com/" style="fill-rule:evenodd;clip-rule:evenodd;stroke-linejoin:round;stroke-miterlimit:2;">
    <g transform="matrix(0.888889,0,0,0.888889,-2.66667,-2.66667)">
        <path d="M10.65,3L9.932,3.534L9.328,5.548L7.477,4.551L6.591,4.681L4.681,6.591L4.551,7.477L5.548,9.328L3.534,9.932L3,10.65L3,13.35L3.534,14.068L5.548,14.673L4.551,16.523L4.681,17.409L6.591,19.319L7.477,19.449L9.328,18.452L9.932,20.466L10.65,21L13.35,21L14.068,20.466L14.673,18.452L16.523,19.449L17.409,19.319L19.319,17.409L19.449,16.523L18.452,14.672L20.466,14.068L21,13.35L21,10.65L20.466,9.932L18.452,9.328L19.449,7.477L19.319,6.591L17.409,4.681L16.523,4.551L14.673,5.548L14.068,3.534L13.35,3L10.65,3ZM10.469,6.963L11.208,4.5L12.792,4.5L13.531,6.963L13.875,7.095C13.965,7.129 14.054,7.166 14.142,7.205L14.479,7.356L16.743,6.137L17.863,7.257L16.644,9.521L16.795,9.858C16.834,9.946 16.871,10.035 16.905,10.125L17.037,10.469L19.5,11.208L19.5,12.792L17.037,13.531L16.905,13.875C16.871,13.965 16.834,14.054 16.795,14.142L16.644,14.479L17.863,16.743L16.743,17.863L14.479,16.644L14.142,16.795C14.054,16.834 13.965,16.871 13.875,16.905L13.531,17.037L12.792,19.5L11.208,19.5L10.469,17.037L10.125,16.905C10.035,16.871 9.946,16.834 9.858,16.795L9.521,16.644L7.257,17.863L6.137,16.743L7.356,14.479L7.205,14.142C7.166,14.054 7.129,13.965 7.095,13.875L6.963,13.531L4.5,12.792L4.5,11.208L6.963,10.469L7.095,10.125C7.129,10.035 7.166,9.946 7.205,9.858L7.356,9.521L6.137,7.257L7.257,6.137L9.521,7.356L9.858,7.205C9.946,7.166 10.035,7.129 10.125,7.095L10.469,6.963ZM14.25,12C14.25,13.243 13.243,14.25 12,14.25C10.757,14.25 9.75,13.243 9.75,12C9.75,10.757 10.757,9.75 12,9.75C13.243,9.75 14.25,10.757 14.25,12ZM15.75,12C15.75,14.071 14.071,15.75 12,15.75C9.929,15.75 8.25,14.071 8.25,12C8.25,9.929 9.929,8.25 12,8.25C14.071,8.25 15.75,9.929 15.75,12Z" style="fill:rgb(8,3,65);"/>
    </g>
</svg>
