<?xml version="1.0" encoding="UTF-8" standalone="no"?>
<!DOCTYPE svg PUBLIC "-//W3C//DTD SVG 1.1//EN" "http://www.w3.org/Graphics/SVG/1.1/DTD/svg11.dtd">
<svg width="100%" height="100%" viewBox="0 0 17 16" version="1.1" xmlns="http://www.w3.org/2000/svg" xmlns:xlink="http://www.w3.org/1999/xlink" xml:space="preserve" xmlns:serif="http://www.serif.com/" style="fill-rule:evenodd;clip-rule:evenodd;stroke-linejoin:round;stroke-miterlimit:2;">
    <g transform="matrix(0.0313114,0,0,0.0311625,0,0)">
        <path d="M503.83,117.106L503.83,345.872L471.149,345.872L427.574,62.638L503.83,117.106Z" style="fill:rgb(238,238,238);fill-rule:nonzero;"/>
    </g>
    <g transform="matrix(0.0313114,0,0,0.0311625,0,0)">
        <path d="M471.149,95.319L471.149,345.872L8.17,345.872L8.17,8.17L394.894,8.17L471.149,95.319Z" style="fill:white;fill-rule:nonzero;"/>
    </g>
    <g transform="matrix(0.0313114,0,0,0.0311625,0,0)">
        <path d="M394.894,8.17L394.894,117.106L503.83,117.106L394.894,8.17Z" style="fill:rgb(220,220,220);fill-rule:nonzero;"/>
    </g>
    <g transform="matrix(0.0313114,0,0,0.0311625,0,0)">
        <path d="M73.532,323.178C69.02,323.178 65.362,319.521 65.362,315.008L65.362,40.851C65.362,36.338 69.02,32.681 73.532,32.681C78.044,32.681 81.702,36.338 81.702,40.851L81.702,315.007C81.702,319.521 78.044,323.178 73.532,323.178Z" style="fill:rgb(171,236,236);fill-rule:nonzero;"/>
    </g>
    <g transform="matrix(0.0313114,0,0,0.0311625,0,0)">
        <path d="M182.468,218.78C177.956,218.78 174.298,215.123 174.298,210.61L174.298,40.851C174.298,36.338 177.956,32.681 182.468,32.681C186.98,32.681 190.638,36.338 190.638,40.851L190.638,210.61C190.638,215.123 186.98,218.78 182.468,218.78Z" style="fill:rgb(171,236,236);fill-rule:nonzero;"/>
    </g>
    <g transform="matrix(0.0313114,0,0,0.0311625,0,0)">
        <path d="M438.468,323.178C433.955,323.178 430.298,319.521 430.298,315.008L430.298,117.106C430.298,112.593 433.955,108.936 438.468,108.936C442.981,108.936 446.638,112.593 446.638,117.106L446.638,315.007C446.638,319.521 442.981,323.178 438.468,323.178Z" style="fill:rgb(171,236,236);fill-rule:nonzero;"/>
    </g>
    <g transform="matrix(0.0313114,0,0,0.0311625,0,0)">
        <path d="M469.697,290.497L39.399,290.497C34.887,290.497 31.229,286.84 31.229,282.327C31.229,277.814 34.887,274.157 39.399,274.157L469.697,274.157C474.21,274.157 477.867,277.814 477.867,282.327C477.867,286.84 474.21,290.497 469.697,290.497Z" style="fill:rgb(171,236,236);fill-rule:nonzero;"/>
    </g>
    <g transform="matrix(0.0313114,0,0,0.0311625,0,0)">
        <path d="M394.894,81.702L40.851,81.702C36.339,81.702 32.681,78.045 32.681,73.532C32.681,69.019 36.339,65.362 40.851,65.362L394.894,65.362C399.407,65.362 403.064,69.019 403.064,73.532C403.064,78.045 399.407,81.702 394.894,81.702Z" style="fill:rgb(171,236,236);fill-rule:nonzero;"/>
    </g>
    <g transform="matrix(0.0313114,0,0,0.0311625,0,0)">
        <path d="M469.697,186.099L40.851,186.099C36.339,186.099 32.681,182.442 32.681,177.929C32.681,173.416 36.339,169.759 40.851,169.759L469.697,169.759C474.21,169.759 477.867,173.416 477.867,177.929C477.867,182.442 474.21,186.099 469.697,186.099Z" style="fill:rgb(171,236,236);fill-rule:nonzero;"/>
    </g>
    <g transform="matrix(0.0313114,0,0,0.0311625,0,0)">
        <path d="M402.156,220.897L217.328,220.897C212.816,220.897 209.158,217.24 209.158,212.727C209.158,208.214 212.816,204.557 217.328,204.557L402.157,204.557C406.67,204.557 410.327,208.214 410.327,212.727C410.327,217.241 406.67,220.897 402.156,220.897Z" style="fill:rgb(171,236,236);fill-rule:nonzero;"/>
    </g>
    <g transform="matrix(0.0313114,0,0,0.0311625,0,0)">
        <path d="M309.923,255.698L217.327,255.698C212.815,255.698 209.157,252.041 209.157,247.528C209.157,243.015 212.815,239.358 217.327,239.358L309.923,239.358C314.436,239.358 318.093,243.015 318.093,247.528C318.093,252.041 314.437,255.698 309.923,255.698Z" style="fill:rgb(171,236,236);fill-rule:nonzero;"/>
    </g>
    <g transform="matrix(0.0313114,0,0,0.0311625,0,0)">
        <path d="M80.264,446.638L58.477,474.439L8.17,446.638L80.264,446.638Z" style="fill:rgb(77,77,77);fill-rule:nonzero;"/>
    </g>
    <g transform="matrix(0.0313114,0,0,0.0311625,0,0)">
        <path d="M58.477,418.838L80.264,438.697L58.477,458.556L8.17,446.638L58.477,418.838Z" style="fill:rgb(115,115,115);fill-rule:nonzero;"/>
    </g>
    <g transform="matrix(0.0313114,0,0,0.0311625,0,0)">
        <path d="M133.447,458.556L111.66,503.83L58.477,474.439L58.477,458.556L133.447,458.556Z" style="fill:rgb(255,193,166);fill-rule:nonzero;"/>
    </g>
    <g transform="matrix(0.0313114,0,0,0.0311625,0,0)">
        <path d="M111.66,471.149L58.477,458.556L58.477,418.838L111.66,389.447L133.447,430.298L111.66,471.149Z" style="fill:rgb(255,219,204);fill-rule:nonzero;"/>
    </g>
    <g transform="matrix(0.0313114,0,0,0.0311625,0,0)">
        <path d="M392.17,471.149L413.957,503.83L446.638,503.83C478.219,503.83 503.829,478.219 503.829,446.639L392.17,471.149Z" style="fill:rgb(254,95,26);fill-rule:nonzero;"/>
    </g>
    <g transform="matrix(0.0313114,0,0,0.0311625,0,0)">
        <path d="M446.638,389.447C478.229,389.447 503.829,415.047 503.829,446.638C503.829,460.179 478.218,471.149 446.638,471.149L392.17,471.149L413.957,389.752L413.957,389.447L446.638,389.447Z" style="fill:rgb(254,131,77);fill-rule:nonzero;"/>
    </g>
    <g transform="matrix(0.0313114,0,0,0.0311625,0,0)">
        <path d="M403.064,449.362L381.277,503.83L111.66,503.83L111.66,471.149L403.064,449.362Z" style="fill:rgb(254,220,61);fill-rule:nonzero;"/>
    </g>
    <g transform="matrix(0.0313114,0,0,0.0311625,0,0)">
        <path d="M403.064,424.851L381.277,471.149L111.66,471.149L111.66,446.638L403.064,424.851Z" style="fill:rgb(255,231,119);fill-rule:nonzero;"/>
    </g>
    <g transform="matrix(0.0313114,0,0,0.0311625,0,0)">
        <path d="M381.277,389.752L403.064,446.638L111.66,446.638L111.66,389.447L381.277,389.447L381.277,389.752Z" style="fill:rgb(255,241,177);fill-rule:nonzero;"/>
    </g>
    <g transform="matrix(0.0313114,0,0,0.0311625,0,0)">
        <path d="M381.277,471.149L381.277,503.83L413.957,503.83L413.957,471.149L397.617,449.362L381.277,471.149Z" style="fill:rgb(185,185,185);fill-rule:nonzero;"/>
    </g>
    <g transform="matrix(0.0313114,0,0,0.0311625,0,0)">
        <rect x="381.277" y="389.447" width="32.681" height="81.702" style="fill:rgb(220,220,220);"/>
    </g>
    <g transform="matrix(0.0313114,0,0,0.0311625,0,0)">
        <path d="M446.638,381.277L111.66,381.277C110.278,381.277 108.918,381.628 107.709,382.297L54.6,411.646C54.563,411.667 4.219,439.488 4.219,439.488C1.616,440.926 0,443.665 0,446.638C0,449.611 1.616,452.351 4.219,453.789L54.563,481.61C54.6,481.631 107.709,510.98 107.709,510.98C108.918,511.648 110.278,512 111.66,512L446.64,512C464.098,512 480.513,505.201 492.857,492.856C505.203,480.511 512.001,464.097 512,446.639C512,410.598 482.679,381.277 446.638,381.277ZM103.489,489.98L66.648,469.621L66.648,423.658L103.489,403.298L103.489,489.98ZM119.83,454.809L166.128,454.809C170.64,454.809 174.298,451.152 174.298,446.639C174.298,442.126 170.64,438.469 166.128,438.469L119.83,438.469L119.83,397.618L373.107,397.618L373.107,438.469L198.809,438.469C194.297,438.469 190.639,442.126 190.639,446.639C190.639,451.152 194.297,454.809 198.809,454.809L373.107,454.809L373.107,495.66L119.83,495.66L119.83,454.809ZM389.447,397.617L405.787,397.617L405.787,495.66L389.447,495.66L389.447,397.617ZM50.308,432.687L50.308,460.59L25.062,446.639L50.308,432.687ZM481.302,481.301C472.044,490.561 459.733,495.66 446.64,495.66L422.128,495.66L422.128,397.617L446.639,397.617C473.669,397.617 495.66,419.608 495.66,446.638C495.66,459.732 490.56,472.042 481.302,481.301Z" style="fill-rule:nonzero;"/>
    </g>
    <g transform="matrix(0.0313114,0,0,0.0311625,0,0)">
        <path d="M509.608,111.328L400.672,2.392C399.138,0.861 397.06,0 394.894,0L8.17,0C3.658,0 0,3.657 0,8.17L0,345.872C0,350.385 3.658,354.042 8.17,354.042L503.83,354.042C508.343,354.042 512,350.385 512,345.872L512,117.106C512,114.94 511.139,112.862 509.608,111.328ZM403.064,27.894L484.106,108.936L403.064,108.936L403.064,27.894ZM16.34,337.702L16.34,16.34L386.723,16.34L386.723,117.106C386.723,121.619 390.38,125.276 394.893,125.276L495.66,125.276L495.66,337.702L16.34,337.702Z" style="fill-rule:nonzero;"/>
    </g>
</svg>
