<?xml version="1.0" encoding="iso-8859-1"?>
<!-- Uploaded to: SVG Repo, www.svgrepo.com, Generator: SVG Repo Mixer Tools -->
<svg version="1.1" id="Layer_1" xmlns="http://www.w3.org/2000/svg" xmlns:xlink="http://www.w3.org/1999/xlink" 
	 viewBox="0 0 512 512" xml:space="preserve">
<polygon style="fill:#EEEEEE;" points="503.83,117.106 503.83,345.872 471.149,345.872 427.574,62.638 "/>
<polygon style="fill:#FFFFFF;" points="471.149,95.319 471.149,345.872 8.17,345.872 8.17,8.17 394.894,8.17 "/>
<polygon style="fill:#DCDCDC;" points="394.894,8.17 394.894,117.106 503.83,117.106 "/>
<g>
	<path style="fill:#ABECEC;" d="M73.532,323.178c-4.512,0-8.17-3.657-8.17-8.17V40.851c0-4.513,3.658-8.17,8.17-8.17
		c4.512,0,8.17,3.657,8.17,8.17v274.156C81.702,319.521,78.044,323.178,73.532,323.178z"/>
	<path style="fill:#ABECEC;" d="M182.468,218.78c-4.512,0-8.17-3.657-8.17-8.17V40.851c0-4.513,3.658-8.17,8.17-8.17
		s8.17,3.657,8.17,8.17V210.61C190.638,215.123,186.98,218.78,182.468,218.78z"/>
	<path style="fill:#ABECEC;" d="M438.468,323.178c-4.513,0-8.17-3.657-8.17-8.17V117.106c0-4.513,3.657-8.17,8.17-8.17
		c4.513,0,8.17,3.657,8.17,8.17v197.901C446.638,319.521,442.981,323.178,438.468,323.178z"/>
	<path style="fill:#ABECEC;" d="M469.697,290.497H39.399c-4.512,0-8.17-3.657-8.17-8.17c0-4.513,3.658-8.17,8.17-8.17h430.298
		c4.513,0,8.17,3.657,8.17,8.17C477.867,286.84,474.21,290.497,469.697,290.497z"/>
	<path style="fill:#ABECEC;" d="M394.894,81.702H40.851c-4.512,0-8.17-3.657-8.17-8.17s3.658-8.17,8.17-8.17h354.043
		c4.513,0,8.17,3.657,8.17,8.17S399.407,81.702,394.894,81.702z"/>
	<path style="fill:#ABECEC;" d="M469.697,186.099H40.851c-4.512,0-8.17-3.657-8.17-8.17s3.658-8.17,8.17-8.17h428.846
		c4.513,0,8.17,3.657,8.17,8.17S474.21,186.099,469.697,186.099z"/>
	<path style="fill:#ABECEC;" d="M402.156,220.897H217.328c-4.512,0-8.17-3.657-8.17-8.17c0-4.513,3.658-8.17,8.17-8.17h184.829
		c4.513,0,8.17,3.657,8.17,8.17C410.327,217.241,406.67,220.897,402.156,220.897z"/>
	<path style="fill:#ABECEC;" d="M309.923,255.698h-92.596c-4.512,0-8.17-3.657-8.17-8.17s3.658-8.17,8.17-8.17h92.596
		c4.513,0,8.17,3.657,8.17,8.17S314.437,255.698,309.923,255.698z"/>
</g>
<polygon style="fill:#4D4D4D;" points="80.264,446.638 58.477,474.439 8.17,446.638 "/>
<polygon style="fill:#737373;" points="58.477,418.838 80.264,438.697 58.477,458.556 8.17,446.638 "/>
<polygon style="fill:#FFC1A6;" points="133.447,458.556 111.66,503.83 58.477,474.439 58.477,458.556 "/>
<polygon style="fill:#FFDBCC;" points="111.66,471.149 58.477,458.556 58.477,418.838 111.66,389.447 133.447,430.298 "/>
<path style="fill:#FE5F1A;" d="M392.17,471.149l21.787,32.681h32.681c31.581,0,57.191-25.611,57.191-57.191L392.17,471.149z"/>
<path style="fill:#FE834D;" d="M446.638,389.447c31.591,0,57.191,25.6,57.191,57.191c0,13.541-25.611,24.511-57.191,24.511H392.17
	l21.787-81.397v-0.305H446.638z"/>
<polygon style="fill:#FEDC3D;" points="403.064,449.362 381.277,503.83 111.66,503.83 111.66,471.149 "/>
<polygon style="fill:#FFE777;" points="403.064,424.851 381.277,471.149 111.66,471.149 111.66,446.638 "/>
<polygon style="fill:#FFF1B1;" points="381.277,389.752 403.064,446.638 111.66,446.638 111.66,389.447 381.277,389.447 "/>
<polygon style="fill:#B9B9B9;" points="381.277,471.149 381.277,503.83 413.957,503.83 413.957,471.149 397.617,449.362 "/>
<rect x="381.277" y="389.447" style="fill:#DCDCDC;" width="32.681" height="81.702"/>
<path d="M446.638,381.277H111.66c-1.382,0-2.742,0.351-3.951,1.02L54.6,411.646c-0.037,0.021-50.381,27.842-50.381,27.842
	C1.616,440.926,0,443.665,0,446.638s1.616,5.713,4.219,7.151l50.344,27.821c0.037,0.021,53.146,29.37,53.146,29.37
	c1.209,0.668,2.569,1.02,3.951,1.02h334.98c17.458,0,33.873-6.799,46.217-19.144c12.346-12.345,19.144-28.759,19.143-46.217
	C512,410.598,482.679,381.277,446.638,381.277z M103.489,489.98l-36.841-20.359v-45.963l36.841-20.36V489.98z M119.83,454.809
	h46.298c4.512,0,8.17-3.657,8.17-8.17c0-4.513-3.658-8.17-8.17-8.17H119.83v-40.851h253.277v40.851H198.809
	c-4.512,0-8.17,3.657-8.17,8.17c0,4.513,3.658,8.17,8.17,8.17h174.298v40.851H119.83V454.809z M389.447,397.617h16.34v98.043h-16.34
	V397.617z M50.308,432.687v27.903l-25.246-13.951L50.308,432.687z M481.302,481.301c-9.258,9.26-21.569,14.359-34.662,14.359
	h-24.512v-98.043h24.511c27.03,0,49.021,21.991,49.021,49.021C495.66,459.732,490.56,472.042,481.302,481.301z"/>
<path d="M509.608,111.328L400.672,2.392C399.138,0.861,397.06,0,394.894,0H8.17C3.658,0,0,3.657,0,8.17v337.702
	c0,4.513,3.658,8.17,8.17,8.17h495.66c4.513,0,8.17-3.657,8.17-8.17V117.106C512,114.94,511.139,112.862,509.608,111.328z
	 M403.064,27.894l81.042,81.042h-81.042V27.894z M16.34,337.702V16.34h370.383v100.766c0,4.513,3.657,8.17,8.17,8.17H495.66v212.426
	H16.34z"/>
</svg>