<?xml version="1.0" encoding="UTF-8" standalone="no"?>
<!DOCTYPE svg PUBLIC "-//W3C//DTD SVG 1.1//EN" "http://www.w3.org/Graphics/SVG/1.1/DTD/svg11.dtd">
<svg width="100%" height="100%" viewBox="0 0 24 16" version="1.1" xmlns="http://www.w3.org/2000/svg" xmlns:xlink="http://www.w3.org/1999/xlink" xml:space="preserve" xmlns:serif="http://www.serif.com/" style="fill-rule:evenodd;clip-rule:evenodd;stroke-linejoin:round;stroke-miterlimit:2;">
    <g transform="matrix(1,0,0,1,-0.0394727,0)">
        <g id="brazil" transform="matrix(0.120095,0,0,0.120095,-16.9995,-82.1447)">
            <g id="brazil1" serif:id="brazil">
                <g id="brazil2" serif:id="brazil">
                    <rect id="rect12599" x="142.146" y="684" width="198.425" height="133.228" style="fill:rgb(82,193,98);"/>
                    <path id="path12601" d="M149.269,707.517L177.146,725.318L205.022,707.517L177.146,689.716L149.269,707.517Z" style="fill:rgb(246,214,96);fill-rule:nonzero;"/>
                    <circle id="circle12603" cx="177.146" cy="707.517" r="11.755" style="fill:rgb(71,88,169);"/>
                    <g id="path12608" transform="matrix(0.0524554,0,0,0.0524554,340.397,725.02)">
                        <clipPath id="_clip1">
                            <circle cx="-3112.19" cy="-333.678" r="224.1"/>
                        </clipPath>
                        <g clip-path="url(#_clip1)">
                            <path d="M-3784.49,114.521C-3784.34,-183.937 -3538.71,-429.445 -3240.25,-429.445C-2941.79,-429.445 -2696.16,-183.937 -2696.01,114.521L-2728.02,114.521C-2728.02,114.42 -2728.02,114.319 -2728.02,114.218C-2728.02,-166.782 -2959.25,-398.01 -3240.25,-398.01C-3521.25,-398.01 -3752.48,-166.782 -3752.48,114.218C-3752.48,114.319 -3752.48,114.42 -3752.48,114.521L-3784.49,114.521Z" style="fill:rgb(245,247,250);fill-rule:nonzero;"/>
                        </g>
                    </g>
                    <g id="g13119" transform="matrix(1,0,0,1,-0.000424721,2.00026e-05)">
                        <path id="use12610" d="M167.12,704.081C167.394,704.047 167.589,703.768 167.551,703.464C167.514,703.159 167.258,702.936 166.983,702.97C166.709,703.003 166.514,703.282 166.552,703.587C166.589,703.891 166.846,704.114 167.12,704.081M167.094,703.874C167.256,703.855 167.369,703.681 167.345,703.489C167.322,703.298 167.17,703.156 167.009,703.176C167.009,703.176 167.009,703.176 167.009,703.176C166.848,703.196 166.734,703.37 166.758,703.561C166.781,703.753 166.933,703.894 167.094,703.874C167.094,703.874 167.094,703.874 167.094,703.874" style="fill:rgb(82,193,98);"/>
                        <g id="use12612" transform="matrix(0.0159545,-0.00111565,0.00111565,0.0159545,168.535,703.945)">
                            <path id="use72773" d="M-31.5,0L-18.5,0L-18.5,-26L9.5,-26C21.569,-26 31.5,-35.931 31.5,-48C31.5,-60.069 21.569,-70 9.5,-70L-30.5,-70L-31.5,0ZM-18.5,-39L8.5,-39C13.437,-39.001 17.499,-43.063 17.499,-48C17.499,-52.937 13.437,-56.999 8.5,-57L-18.5,-57L-18.5,-39Z" style="fill:rgb(82,193,98);"/>
                            <path id="path72775" d="M28,0C28,-10 28,-32 13,-32L-6,-32C16,-32 16,-10 16,0" style="fill:rgb(82,193,98);fill-rule:nonzero;"/>
                        </g>
                        <path id="use12614" d="M169.451,703.891L169.979,703.882C170.242,703.878 170.455,703.657 170.45,703.394L170.447,703.234C170.442,702.971 170.222,702.758 169.959,702.763L169.431,702.772L169.451,703.891ZM169.655,703.68L169.959,703.675C170.126,703.672 170.26,703.532 170.257,703.366L170.255,703.27C170.253,703.105 170.116,702.971 169.952,702.971C169.95,702.971 169.948,702.971 169.946,702.971L169.643,702.976L169.655,703.68Z" style="fill:rgb(82,193,98);"/>
                        <path id="use12616" d="M170.872,703.877L171.879,703.913L171.886,703.705L171.071,703.676L171.081,703.389L171.721,703.411L171.728,703.219L171.088,703.197L171.096,702.973L171.864,703L171.871,702.792L170.911,702.758L170.872,703.877Z" style="fill:rgb(82,193,98);fill-rule:nonzero;"/>
                        <path id="use12618" d="M172.293,703.938L172.484,703.954L172.551,703.19L172.707,703.974L172.882,703.989L173.172,703.244L173.105,704.009L173.296,704.026L173.394,702.91L173.115,702.886L172.825,703.631L172.669,702.847L172.39,702.822L172.293,703.938Z" style="fill:rgb(82,193,98);fill-rule:nonzero;"/>
                        <path id="use12620" d="M174.612,704.199L175.44,704.342L175.472,704.152L174.834,704.043L174.877,703.791L175.397,703.88L175.43,703.691L174.91,703.601L174.94,703.428L175.558,703.534L175.591,703.345L174.783,703.206L174.612,704.199Z" style="fill:rgb(82,193,98);fill-rule:nonzero;"/>
                        <path id="use12622" d="M176.738,704.617L176.94,704.669L177.044,704.267L177.477,704.379C177.506,704.386 177.536,704.39 177.565,704.39C177.758,704.39 177.917,704.231 177.917,704.038C177.917,703.878 177.808,703.737 177.653,703.697L177.034,703.537L176.738,704.617ZM177.096,704.065L177.514,704.173C177.526,704.176 177.538,704.178 177.55,704.178C177.629,704.178 177.694,704.113 177.694,704.034C177.694,703.969 177.649,703.911 177.586,703.895L177.168,703.786L177.096,704.065Z" style="fill:rgb(82,193,98);"/>
                        <g id="use12624" transform="matrix(0.0152533,0.00480934,-0.00480934,0.0152533,178.592,705.135)">
                            <path id="use72779" d="M-31.5,0L-18.5,0L-18.5,-26L9.5,-26C21.569,-26 31.5,-35.931 31.5,-48C31.5,-60.069 21.569,-70 9.5,-70L-30.5,-70L-31.5,0ZM-18.5,-39L8.5,-39C13.437,-39.001 17.499,-43.063 17.499,-48C17.499,-52.937 13.437,-56.999 8.5,-57L-18.5,-57L-18.5,-39Z" style="fill:rgb(82,193,98);"/>
                            <path id="path72781" d="M28,0C28,-10 28,-32 13,-32L-6,-32C16,-32 16,-10 16,0" style="fill:rgb(82,193,98);fill-rule:nonzero;"/>
                        </g>
                        <path id="use12626" d="M179.936,705.598C180.195,705.694 180.497,705.537 180.604,705.25C180.712,704.962 180.587,704.646 180.328,704.549C180.069,704.452 179.768,704.609 179.66,704.897C179.553,705.185 179.677,705.501 179.936,705.598M180.009,705.403C180.009,705.403 180.009,705.403 180.009,705.403C180.161,705.46 180.342,705.358 180.409,705.177C180.477,704.996 180.407,704.801 180.255,704.744C180.255,704.744 180.255,704.744 180.255,704.744C180.103,704.687 179.923,704.789 179.855,704.97C179.787,705.151 179.857,705.346 180.009,705.403" style="fill:rgb(82,193,98);"/>
                        <g id="use12628" transform="matrix(0.014667,0.00637739,-0.00637739,0.014667,181.254,706.13)">
                            <path id="use72765" d="M0,0C17.276,-0.006 31.489,-15.804 31.489,-35C31.489,-54.196 17.276,-69.994 0,-70C-17.276,-69.994 -31.489,-54.196 -31.489,-35C-31.489,-15.804 -17.276,-0.006 0,0M0,-13C10.146,-13.005 18.492,-22.935 18.492,-35C18.492,-47.065 10.146,-56.995 0,-57C-10.146,-56.995 -18.492,-47.065 -18.492,-35C-18.492,-22.935 -10.146,-13.005 -0,-13" style="fill:rgb(82,193,98);"/>
                            <rect id="rect72767" x="5" y="-35" width="26.5" height="10" style="fill:rgb(82,193,98);"/>
                            <rect id="rect72769" x="21.5" y="-35" width="10" height="35" style="fill:rgb(82,193,98);"/>
                            <path id="path36804" d="M5,-35L31.5,-35L33.047,-46.498L6.227,-45.935L5,-35Z" style="fill:rgb(245,247,250);"/>
                        </g>
                        <g id="use12630" transform="matrix(0.0143131,0.00713627,-0.00713627,0.0143131,182.542,706.731)">
                            <path id="use72785" d="M-31.5,0L-18.5,0L-18.5,-26L9.5,-26C21.569,-26 31.5,-35.931 31.5,-48C31.5,-60.069 21.569,-70 9.5,-70L-30.5,-70L-31.5,0ZM-18.5,-39L8.5,-39C13.437,-39.001 17.499,-43.063 17.499,-48C17.499,-52.937 13.437,-56.999 8.5,-57L-18.5,-57L-18.5,-39Z" style="fill:rgb(82,193,98);"/>
                            <path id="path72787" d="M28,0C28,-10 28,-32 13,-32L-6,-32C16,-32 16,-10 16,0" style="fill:rgb(82,193,98);fill-rule:nonzero;"/>
                        </g>
                        <path id="use12632" d="M183.359,707.15L184.236,707.646L184.338,707.465L183.628,707.064L183.77,706.813L184.327,707.128L184.421,706.961L183.864,706.646L183.975,706.451L184.643,706.829L184.745,706.648L183.91,706.176L183.359,707.15Z" style="fill:rgb(82,193,98);fill-rule:nonzero;"/>
                        <path id="use12634" d="M184.992,707.698C184.932,707.792 184.993,707.898 185.128,707.984C185.263,708.07 185.355,708.066 185.393,708.006C185.516,707.814 184.808,707.533 185.026,707.198C185.214,706.91 185.536,707.134 185.658,707.212C185.779,707.289 185.974,707.489 185.822,707.72L185.617,707.589C185.681,707.487 185.611,707.39 185.502,707.321C185.398,707.255 185.313,707.224 185.251,707.322C185.146,707.479 185.84,707.774 185.627,708.107C185.471,708.354 185.198,708.246 185.016,708.13C184.86,708.031 184.629,707.798 184.78,707.563L184.992,707.698Z" style="fill:rgb(82,193,98);fill-rule:nonzero;"/>
                        <path id="use12636" d="M186.193,708.492C186.128,708.583 186.183,708.692 186.314,708.785C186.444,708.877 186.536,708.879 186.578,708.821C186.71,708.635 186.018,708.318 186.253,707.995C186.456,707.717 186.766,707.958 186.883,708.041C187,708.125 187.184,708.335 187.021,708.557L186.822,708.416C186.892,708.318 186.826,708.217 186.722,708.143C186.621,708.071 186.538,708.036 186.471,708.13C186.358,708.281 187.036,708.612 186.806,708.934C186.637,709.172 186.37,709.05 186.194,708.925C186.044,708.818 185.825,708.574 185.988,708.346L186.193,708.492Z" style="fill:rgb(82,193,98);fill-rule:nonzero;"/>
                        <path id="use12638" d="M187.329,709.78C187.545,709.952 187.881,709.896 188.072,709.656C188.263,709.416 188.242,709.076 188.026,708.904C187.81,708.732 187.474,708.788 187.283,709.029C187.092,709.269 187.113,709.608 187.329,709.78M187.458,709.618C187.586,709.718 187.788,709.677 187.908,709.526C188.028,709.375 188.023,709.168 187.897,709.067C187.769,708.967 187.567,709.008 187.447,709.159C187.327,709.309 187.332,709.516 187.458,709.618" style="fill:rgb(82,193,98);"/>
                    </g>
                    <g id="g73353" transform="matrix(1,0,0,1,-2.86773,-1.88914)">
                        <path id="path72821" d="M183.659,705.256L183.77,705.607L184.138,705.604L183.839,705.818L183.955,706.167L183.659,705.948L183.363,706.167L183.48,705.818L183.18,705.604L183.549,705.607L183.659,705.256Z" style="fill:rgb(245,247,250);fill-rule:nonzero;"/>
                        <path id="path72821-1-8" d="M180.014,710.873L180.106,711.166L180.413,711.163L180.163,711.342L180.261,711.633L180.014,711.45L179.767,711.633L179.864,711.342L179.614,711.163L179.921,711.166L180.014,710.873Z" style="fill:rgb(245,247,250);fill-rule:nonzero;"/>
                        <path id="path72821-1-8-8" d="M178.83,712.012L178.904,712.247L179.15,712.245L178.95,712.387L179.028,712.62L178.83,712.474L178.633,712.62L178.711,712.387L178.511,712.245L178.756,712.247L178.83,712.012Z" style="fill:rgb(245,247,250);fill-rule:nonzero;"/>
                        <path id="path72821-1-8-5" d="M181.373,711.928L181.466,712.221L181.773,712.218L181.523,712.397L181.62,712.688L181.373,712.505L181.126,712.688L181.224,712.397L180.974,712.218L181.281,712.221L181.373,711.928Z" style="fill:rgb(245,247,250);fill-rule:nonzero;"/>
                        <path id="path72821-1-8-8-0" d="M179.421,712.925L179.474,713.093L179.649,713.091L179.507,713.192L179.562,713.359L179.421,713.254L179.28,713.359L179.336,713.192L179.193,713.091L179.369,713.093L179.421,712.925Z" style="fill:rgb(245,247,250);fill-rule:nonzero;"/>
                        <path id="path72821-1-8-5-6" d="M180.014,714.18L180.125,714.531L180.493,714.528L180.193,714.742L180.31,715.091L180.014,714.872L179.718,715.091L179.835,714.742L179.535,714.528L179.903,714.531L180.014,714.18Z" style="fill:rgb(245,247,250);fill-rule:nonzero;"/>
                        <path id="path72821-1-8-5-0" d="M182.605,715.659L182.679,715.894L182.924,715.892L182.724,716.034L182.802,716.267L182.605,716.121L182.407,716.267L182.485,716.034L182.285,715.892L182.531,715.894L182.605,715.659Z" style="fill:rgb(245,247,250);fill-rule:nonzero;"/>
                        <path id="path72821-1-8-5-6-1" d="M183.532,716.902L183.625,717.195L183.932,717.192L183.682,717.371L183.779,717.662L183.532,717.479L183.285,717.662L183.383,717.371L183.133,717.192L183.44,717.195L183.532,716.902Z" style="fill:rgb(245,247,250);fill-rule:nonzero;"/>
                        <path id="path72821-1-8-5-0-6" d="M184.54,715.947L184.614,716.182L184.86,716.18L184.66,716.322L184.737,716.555L184.54,716.409L184.343,716.555L184.42,716.322L184.22,716.18L184.466,716.182L184.54,715.947Z" style="fill:rgb(245,247,250);fill-rule:nonzero;"/>
                        <path id="path72821-1-8-5-6-1-2" d="M185.899,716.614L185.991,716.907L186.298,716.904L186.048,717.083L186.146,717.374L185.899,717.191L185.652,717.374L185.749,717.083L185.499,716.904L185.806,716.907L185.899,716.614Z" style="fill:rgb(245,247,250);fill-rule:nonzero;"/>
                        <path id="path72821-1-8-5-0-6-0" d="M185.851,715.547L185.925,715.782L186.17,715.78L185.97,715.922L186.048,716.155L185.851,716.009L185.653,716.155L185.731,715.922L185.531,715.78L185.777,715.782L185.851,715.547Z" style="fill:rgb(245,247,250);fill-rule:nonzero;"/>
                        <path id="path72821-1-8-5-0-6-2" d="M187.067,715.771L187.141,716.006L187.387,716.004L187.187,716.146L187.264,716.379L187.067,716.233L186.87,716.379L186.947,716.146L186.747,716.004L186.993,716.006L187.067,715.771Z" style="fill:rgb(245,247,250);fill-rule:nonzero;"/>
                        <path id="path72821-1-8-5-6-1-2-3" d="M188.01,715.095L188.102,715.388L188.409,715.385L188.159,715.564L188.257,715.855L188.01,715.672L187.763,715.855L187.86,715.564L187.61,715.385L187.917,715.388L188.01,715.095Z" style="fill:rgb(245,247,250);fill-rule:nonzero;"/>
                        <path id="path72821-1-8-5-0-6-2-6" d="M185.883,717.882L185.957,718.117L186.202,718.115L186.002,718.257L186.08,718.49L185.883,718.344L185.685,718.49L185.763,718.257L185.563,718.115L185.809,718.117L185.883,717.882Z" style="fill:rgb(245,247,250);fill-rule:nonzero;"/>
                        <path id="path72821-1-8-5-6-1-2-3-1" d="M188.73,714.151L188.823,714.444L189.13,714.441L188.88,714.62L188.977,714.911L188.73,714.728L188.483,714.911L188.581,714.62L188.331,714.441L188.638,714.444L188.73,714.151Z" style="fill:rgb(245,247,250);fill-rule:nonzero;"/>
                        <path id="path72821-1-8-5-6-0" d="M188.25,713.029L188.361,713.38L188.729,713.377L188.43,713.591L188.547,713.94L188.25,713.721L187.954,713.94L188.071,713.591L187.771,713.377L188.14,713.38L188.25,713.029Z" style="fill:rgb(245,247,250);fill-rule:nonzero;"/>
                        <path id="path72821-1-8-5-6-19" d="M175.296,715.14L175.407,715.491L175.775,715.488L175.475,715.702L175.592,716.051L175.296,715.832L175,716.051L175.117,715.702L174.817,715.488L175.185,715.491L175.296,715.14Z" style="fill:rgb(245,247,250);fill-rule:nonzero;"/>
                        <path id="path72821-1-8-8-00" d="M173.552,714.236L173.626,714.471L173.871,714.469L173.671,714.611L173.749,714.844L173.552,714.698L173.354,714.844L173.432,714.611L173.232,714.469L173.478,714.471L173.552,714.236Z" style="fill:rgb(245,247,250);fill-rule:nonzero;"/>
                        <path id="path72821-1-8-5-2" d="M173.904,712.984L173.997,713.277L174.304,713.274L174.054,713.453L174.151,713.744L173.904,713.561L173.657,713.744L173.755,713.453L173.505,713.274L173.812,713.277L173.904,712.984Z" style="fill:rgb(245,247,250);fill-rule:nonzero;"/>
                        <path id="path72821-1-8-8-0-8" d="M172.609,711.277L172.662,711.445L172.837,711.443L172.694,711.544L172.75,711.711L172.609,711.606L172.468,711.711L172.524,711.544L172.381,711.443L172.556,711.445L172.609,711.277Z" style="fill:rgb(245,247,250);fill-rule:nonzero;"/>
                        <path id="path72821-1-8-5-6-4" d="M171.456,711.733L171.567,712.084L171.935,712.081L171.636,712.295L171.752,712.644L171.456,712.425L171.16,712.644L171.277,712.295L170.977,712.081L171.346,712.084L171.456,711.733Z" style="fill:rgb(245,247,250);fill-rule:nonzero;"/>
                        <path id="path72821-1-8-5-5" d="M170.018,712.872L170.11,713.165L170.417,713.162L170.167,713.341L170.265,713.632L170.018,713.449L169.771,713.632L169.868,713.341L169.618,713.162L169.925,713.165L170.018,712.872Z" style="fill:rgb(245,247,250);fill-rule:nonzero;"/>
                        <path id="path72821-1-8-4" d="M175.536,709.465L175.628,709.758L175.935,709.755L175.685,709.934L175.783,710.225L175.536,710.042L175.289,710.225L175.386,709.934L175.136,709.755L175.443,709.758L175.536,709.465Z" style="fill:rgb(245,247,250);fill-rule:nonzero;"/>
                        <path id="path72821-1-8-5-6-4-4" d="M170.418,706.791L170.529,707.142L170.897,707.139L170.597,707.353L170.714,707.702L170.418,707.483L170.122,707.702L170.239,707.353L169.939,707.139L170.307,707.142L170.418,706.791Z" style="fill:rgb(245,247,250);fill-rule:nonzero;"/>
                        <path id="path72821-1" d="M183.212,708.478L183.286,708.713L183.531,708.711L183.331,708.853L183.409,709.086L183.212,708.94L183.014,709.086L183.092,708.853L182.892,708.711L183.138,708.713L183.212,708.478Z" style="fill:rgb(245,247,250);fill-rule:nonzero;"/>
                        <path id="path72821-1-8-5-6-8" d="M180.013,718.435L180.05,718.552L180.172,718.551L180.073,718.622L180.112,718.738L180.013,718.665L179.914,718.738L179.953,718.622L179.853,718.551L179.976,718.552L180.013,718.435Z" style="fill:rgb(245,247,250);fill-rule:nonzero;"/>
                        <path id="path72821-1-8-5-0-6-2-5" d="M189.882,713.308L189.956,713.543L190.201,713.541L190.001,713.683L190.079,713.916L189.882,713.77L189.684,713.916L189.762,713.683L189.562,713.541L189.808,713.543L189.882,713.308Z" style="fill:rgb(245,247,250);fill-rule:nonzero;"/>
                    </g>
                </g>
            </g>
        </g>
    </g>
</svg>
